<svg width="381" height="313" viewBox="0 0 381 313" fill="none" xmlns="http://www.w3.org/2000/svg">
<rect x="17.5" y="33.5" width="346" height="243" rx="27.5" fill="#484387" stroke="#BB9010"/>
<path d="M60 33.5L43.5 33.5C43.5 33.5 32.0002 33.4957 32 18.748C31.9998 4.00024 43.7895 4 43.7895 4" stroke="#BB9010"/>
<ellipse cx="2.1057" cy="5.75471" rx="2.1057" ry="5.75471" transform="matrix(0.43622 -0.89984 0.813685 0.581305 24 23.4995)" fill="#BB9010"/>
<ellipse cx="2.05168" cy="5.92775" rx="2.05168" ry="5.92775" transform="matrix(0.559541 0.828803 -0.708906 0.705303 38.4043 9.92969)" fill="#BB9010"/>
<ellipse cx="33.0951" cy="5.7948" rx="2" ry="5.5" transform="rotate(11.9413 33.0951 5.7948)" fill="#BB9010"/>
<ellipse cx="44.4348" cy="4.77352" rx="1.81107" ry="5.4332" transform="rotate(89.9428 44.4348 4.77352)" fill="#BB9010"/>
<path d="M326 33.5L342.5 33.5C342.5 33.5 354 33.4957 354 18.748C354 4.00024 342.211 4 342.211 4" stroke="#BB9010"/>
<ellipse cx="2.1057" cy="5.75471" rx="2.1057" ry="5.75471" transform="matrix(-0.43622 -0.89984 -0.813685 0.581305 362 23.4995)" fill="#BB9010"/>
<ellipse cx="2.05168" cy="5.92775" rx="2.05168" ry="5.92775" transform="matrix(-0.559541 0.828803 0.708906 0.705303 347.596 9.92969)" fill="#BB9010"/>
<ellipse cx="2" cy="5.5" rx="2" ry="5.5" transform="matrix(-0.97836 0.20691 0.20691 0.97836 353.724 0)" fill="#BB9010"/>
<ellipse cx="1.81107" cy="5.4332" rx="1.81107" ry="5.4332" transform="matrix(-0.000998551 0.999999 0.999999 0.000998551 336.134 2.95703)" fill="#BB9010"/>
<path d="M59.5 277L43.7895 277C43.7895 277 32.0002 277.596 32 292.048C31.9998 306.5 43.7895 306.5 43.7895 306.5" stroke="#BB9010"/>
<ellipse cx="2.1057" cy="5.75471" rx="2.1057" ry="5.75471" transform="matrix(0.43622 0.89984 0.813685 -0.581305 24 287.519)" fill="#BB9010"/>
<ellipse cx="2.05168" cy="5.92775" rx="2.05168" ry="5.92775" transform="matrix(0.559541 -0.828803 -0.708906 -0.705303 38.4043 301.088)" fill="#BB9010"/>
<ellipse cx="2.02018" cy="6.63067" rx="2.02018" ry="6.63067" transform="matrix(0.968588 -0.248671 -0.171628 -0.985162 32.2764 311.893)" fill="#BB9010"/>
<ellipse cx="2.19856" cy="5.4332" rx="2.19856" ry="5.4332" transform="matrix(0.000822558 -1 -0.999999 -0.0012122 49.8662 308.303)" fill="#BB9010"/>
<path d="M328 277L344.789 277C344.789 277 357 278.221 357 292.86C357 307.5 344.789 307.5 344.789 307.5" stroke="#BB9010"/>
<ellipse cx="2.1057" cy="5.75471" rx="2.1057" ry="5.75471" transform="matrix(-0.43622 0.89984 -0.813685 -0.581305 364 288.125)" fill="#BB9010"/>
<ellipse cx="2.05168" cy="5.92775" rx="2.05168" ry="5.92775" transform="matrix(-0.559541 -0.828803 0.708906 -0.705303 349.596 301.695)" fill="#BB9010"/>
<ellipse cx="2.02018" cy="6.63067" rx="2.02018" ry="6.63067" transform="matrix(-0.968588 -0.248671 0.171628 -0.985162 355.724 312.5)" fill="#BB9010"/>
<ellipse cx="2.19856" cy="5.4332" rx="2.19856" ry="5.4332" transform="matrix(-0.000822558 -1 0.999999 -0.0012122 338.134 308.91)" fill="#BB9010"/>
<path d="M17.5 156.5C17.5 162.127 13.8248 166.5 9.5 166.5C5.17524 166.5 1.5 162.127 1.5 156.5C1.5 150.873 5.17524 146.5 9.5 146.5C13.8248 146.5 17.5 150.873 17.5 156.5Z" stroke="#BB9010"/>
<path d="M17.5 122C17.5 122 18.763 148.575 10.0246 146.926C5.51982 146.077 1.13214 143.56 1.00616 138.202C0.8848 133.042 2.59771 131.971 2.59771 131.971" stroke="#BB9010" stroke-linecap="round"/>
<path d="M17.5 191C17.5 191 18.763 165.488 10.0246 167.071C5.51982 167.886 1.13214 170.303 1.00616 175.446C0.8848 180.4 2.59771 181.428 2.59771 181.428" stroke="#BB9010" stroke-linecap="round"/>
<path d="M363.5 157C363.5 151.674 367.155 147.5 371.5 147.5C375.845 147.5 379.5 151.674 379.5 157C379.5 162.326 375.845 166.5 371.5 166.5C367.155 166.5 363.5 162.326 363.5 157Z" stroke="#BB9010"/>
<path d="M363.5 191C363.5 191 362.237 165.488 370.975 167.071C375.48 167.886 379.868 170.303 379.994 175.446C380.115 180.4 378.402 181.428 378.402 181.428" stroke="#BB9010" stroke-linecap="round"/>
<path d="M363.5 122C363.5 122 362.237 148.575 370.975 146.926C375.48 146.077 379.868 143.56 379.994 138.202C380.115 133.042 378.402 131.971 378.402 131.971" stroke="#BB9010" stroke-linecap="round"/>
</svg>
