<svg width="390" height="173" viewBox="0 0 390 173" fill="none" xmlns="http://www.w3.org/2000/svg">
<path d="M0 56H390" stroke="#BB9010" stroke-width="3"/>
<path d="M0 69H390" stroke="#BB9010" stroke-width="3"/>
<path d="M0 82H390" stroke="#BB9010" stroke-width="3"/>
<rect x="66.3335" y="18.2" width="258.334" height="106.6" fill="#484387"/>
<ellipse cx="324.666" cy="18.2" rx="10.3333" ry="18.2" fill="#EEE6DB"/>
<ellipse cx="324.666" cy="124.8" rx="10.3333" ry="18.2" fill="#EEE6DB"/>
<ellipse cx="66.3333" cy="124.8" rx="10.3333" ry="18.2" fill="#EEE6DB"/>
<ellipse cx="66.3333" cy="18.2" rx="10.3333" ry="18.2" fill="#EEE6DB"/>
<path d="M130.25 114.232C130.25 114.232 129.183 114.317 127.05 114.488C125.002 114.573 121.077 114.829 115.274 115.256L116.426 113.592C116.682 113.677 117.237 113.72 118.09 113.72C119.541 113.72 121.29 113.421 123.338 112.824C125.471 112.141 127.007 110.989 127.946 109.368C128.373 108.6 128.885 107.363 129.482 105.656C130.165 103.864 130.847 101.944 131.53 99.896C132.298 97.848 132.981 95.928 133.578 94.136C134.175 92.2587 134.645 90.7653 134.986 89.656L139.338 76.216C140.533 72.2907 141.13 69.7307 141.13 68.536C141.13 67.8533 141.002 67.4267 140.746 67.256C140.575 67 140.319 66.7867 139.978 66.616C139.551 66.36 138.783 66.5733 137.674 67.256C136.565 67.9387 135.413 68.7493 134.218 69.688C133.365 70.2853 132.554 70.9253 131.786 71.608C131.018 72.2907 130.421 72.7173 129.994 72.888C130.25 71.9493 130.421 71.3093 130.506 70.968C130.677 70.5413 130.847 70.0293 131.018 69.432C132.213 68.664 133.621 67.8107 135.242 66.872C136.949 65.9333 138.826 64.824 140.874 63.544C141.898 62.8613 143.391 61.9227 145.354 60.728C147.317 59.448 149.023 58.3813 150.474 57.528C150.901 57.1867 151.285 57.016 151.626 57.016C151.882 57.016 152.01 57.1867 152.01 57.528C152.01 57.9547 151.882 58.424 151.626 58.936C150.005 62.0933 148.511 65.592 147.146 69.432C145.781 73.272 144.245 77.9653 142.538 83.512L140.618 89.784C139.935 91.9173 139.167 94.3067 138.314 96.952C137.546 99.512 136.863 101.944 136.266 104.248C135.669 106.467 135.285 108.173 135.114 109.368C134.943 110.733 135.455 111.757 136.65 112.44C137.845 113.037 139.167 113.421 140.618 113.592C142.154 113.677 143.178 113.72 143.69 113.72L142.282 115.256C141.855 115.085 140.917 114.957 139.466 114.872C138.015 114.701 136.437 114.573 134.73 114.488C133.023 114.317 131.53 114.232 130.25 114.232ZM160.095 115.512C158.559 115.512 157.108 115.384 155.743 115.128C154.378 114.957 153.098 114.573 151.903 113.976C151.647 113.805 151.348 113.549 151.007 113.208C150.751 112.867 150.794 112.397 151.135 111.8C151.476 111.117 151.988 109.752 152.671 107.704C153.354 105.656 153.866 103.992 154.207 102.712L156.511 101.688C156.34 101.859 156.084 102.456 155.743 103.48C155.402 104.504 155.146 105.357 154.975 106.04C154.89 106.296 154.847 106.552 154.847 106.808C154.847 107.064 154.847 107.32 154.847 107.576C154.847 109.368 155.274 110.691 156.127 111.544C156.81 112.141 157.578 112.568 158.431 112.824C159.284 112.995 160.223 113.08 161.247 113.08C164.319 113.08 167.22 112.184 169.951 110.392C172.767 108.6 175.284 106.381 177.503 103.736C179.807 101.005 181.599 98.3173 182.879 95.672C183.562 94.2213 184.202 92.7707 184.799 91.32C185.482 89.784 185.994 88.3333 186.335 86.968C184.97 87.9067 183.562 88.7173 182.111 89.4C180.746 90.0827 179.551 90.7653 178.527 91.448C177.588 92.0453 176.223 92.472 174.431 92.728C172.639 92.984 171.103 93.112 169.823 93.112C165.642 93.112 162.655 92.0027 160.863 89.784C159.071 87.5653 158.175 84.92 158.175 81.848C158.175 78.6907 159.028 75.4907 160.735 72.248C162.442 68.92 164.66 66.3173 167.391 64.44C168.586 63.5867 169.78 62.8613 170.975 62.264C172.17 61.6667 173.407 60.9413 174.687 60.088C175.882 59.32 177.375 58.7653 179.167 58.424C181.044 58.0827 182.623 57.912 183.903 57.912C188.596 57.912 191.839 59.1493 193.631 61.624C195.423 64.0133 196.319 67 196.319 70.584C196.319 72.888 196.02 75.3627 195.423 78.008C194.826 80.568 194.058 83.0853 193.119 85.56C191.839 89.144 190.175 92.728 188.127 96.312C186.079 99.8107 183.69 103.011 180.959 105.912C178.228 108.813 175.114 111.16 171.615 112.952C168.116 114.659 164.276 115.512 160.095 115.512ZM174.431 89.4C177.162 89.4 179.679 88.5467 181.983 86.84C184.287 85.1333 186.079 83 187.359 80.44C188.127 78.8187 188.724 77.1973 189.151 75.576C189.663 73.9547 189.919 72.4187 189.919 70.968C189.919 68.8347 189.407 66.9573 188.383 65.336C187.359 63.6293 185.652 62.4347 183.263 61.752C181.812 61.3253 180.49 61.112 179.295 61.112C176.82 61.112 174.474 61.88 172.255 63.416C170.036 64.952 168.202 67.2133 166.751 70.2C165.983 71.8213 165.343 73.4427 164.831 75.064C164.404 76.6853 164.191 78.2213 164.191 79.672C164.191 81.8053 164.746 83.7253 165.855 85.432C166.964 87.1387 168.799 88.3333 171.359 89.016C172.383 89.272 173.407 89.4 174.431 89.4Z" fill="#FFBF00"/>
<path d="M205.655 116.152C203.692 116.152 201.516 115.981 199.127 115.64C196.823 115.384 195.074 114.915 193.879 114.232C193.538 114.061 193.196 113.763 192.855 113.336C192.514 112.824 192.514 112.269 192.855 111.672C193.111 111.16 193.452 110.264 193.879 108.984C194.306 107.704 194.732 106.339 195.159 104.888C195.586 103.437 195.927 102.243 196.183 101.304L198.999 100.152C198.828 100.408 198.53 101.133 198.103 102.328C197.762 103.523 197.506 104.461 197.335 105.144C197.25 105.4 197.207 105.656 197.207 105.912C197.207 106.168 197.207 106.424 197.207 106.68C197.207 109.069 197.762 110.733 198.871 111.672C199.554 112.355 200.535 112.867 201.815 113.208C203.095 113.549 204.418 113.72 205.783 113.72C209.452 113.72 212.567 112.952 215.127 111.416C217.772 109.795 219.906 107.789 221.527 105.4C223.234 103.011 224.471 100.536 225.239 97.976C225.751 96.2693 226.007 94.8187 226.007 93.624C226.007 91.064 225.111 89.2293 223.319 88.12C221.612 86.9253 219.479 86.2 216.919 85.944C214.359 85.6027 211.756 85.432 209.111 85.432C209.538 84.92 209.922 84.4507 210.263 84.024C210.604 83.5973 210.775 83.384 210.775 83.384C211.372 83.2133 211.799 83.128 212.055 83.128C212.311 83.128 212.652 83.0853 213.079 83C214.956 82.5733 217.132 81.976 219.607 81.208C222.167 80.3547 224.514 79.16 226.647 77.624C228.866 76.0027 230.402 73.8267 231.255 71.096C231.596 70.1573 231.767 69.176 231.767 68.152C231.767 66.1893 230.999 64.568 229.463 63.288C228.012 61.9227 225.879 61.24 223.063 61.24C221.698 61.24 220.247 61.4107 218.711 61.752C217.175 62.0933 215.895 62.6053 214.871 63.288C213.932 63.8853 212.951 64.8667 211.927 66.232C210.988 67.512 210.348 68.7493 210.007 69.944C209.836 70.5413 209.58 71.48 209.239 72.76C208.983 74.04 208.898 74.808 208.983 75.064L206.295 76.472C206.636 75.448 207.02 73.9973 207.447 72.12C207.874 70.1573 208.258 68.28 208.599 66.488C209.026 64.696 209.239 63.544 209.239 63.032C209.239 62.3493 209.495 61.7947 210.007 61.368C210.604 60.9413 211.116 60.6427 211.543 60.472C212.396 60.1307 213.804 59.832 215.767 59.576C217.815 59.2347 219.65 59.0213 221.271 58.936L224.087 58.808C228.098 58.6373 231.212 59.064 233.431 60.088C235.052 60.856 236.204 61.88 236.887 63.16C237.57 64.3547 237.911 65.6347 237.911 67C237.911 67.5973 237.868 68.152 237.783 68.664C237.698 69.176 237.57 69.688 237.399 70.2C236.546 73.016 234.796 75.5333 232.151 77.752C229.591 79.8853 226.391 81.592 222.551 82.872C221.356 83.2133 220.759 83.512 220.759 83.768C220.759 83.9387 221.015 84.0667 221.527 84.152C222.039 84.2373 222.551 84.3227 223.063 84.408C225.026 84.5787 226.775 85.048 228.311 85.816C229.932 86.584 231.084 87.8213 231.767 89.528C232.108 90.296 232.279 91.2773 232.279 92.472C232.279 94.0933 231.938 95.8853 231.255 97.848C230.658 99.8107 229.932 101.645 229.079 103.352C228.226 104.973 227.415 106.253 226.647 107.192C224.514 109.837 221.783 112.013 218.455 113.72C215.127 115.341 210.86 116.152 205.655 116.152ZM248.209 116.024C244.028 116.024 241.084 114.701 239.377 112.056C237.67 109.411 236.817 106.125 236.817 102.2C236.817 98.36 237.457 94.3067 238.737 90.04C240.102 85.688 241.852 81.6347 243.985 77.88C246.118 74.04 248.38 71.0107 250.769 68.792C252.22 67.512 253.756 66.232 255.377 64.952C257.084 63.5867 258.62 62.3067 259.985 61.112C261.18 60.1733 262.716 59.4907 264.593 59.064C266.47 58.6373 268.092 58.424 269.457 58.424C273.297 58.424 276.028 59.832 277.649 62.648C279.356 65.3787 280.209 68.7493 280.209 72.76C280.209 76.4293 279.612 80.3547 278.417 84.536C277.308 88.7173 275.729 92.6853 273.681 96.44C271.718 100.109 269.5 103.096 267.025 105.4C265.66 106.68 264.252 107.832 262.801 108.856C261.35 109.795 259.9 110.989 258.449 112.44C257.084 113.72 255.377 114.616 253.329 115.128C251.281 115.725 249.574 116.024 248.209 116.024ZM253.457 111.672C256.358 111.672 259.132 110.349 261.777 107.704C264.508 105.059 266.94 101.261 269.073 96.312C270.524 92.8987 271.676 89.4853 272.529 86.072C273.468 82.6587 273.937 79.5013 273.937 76.6C273.937 73.6133 273.425 71.0107 272.401 68.792C271.377 66.5733 269.756 64.9947 267.537 64.056C266.257 63.544 264.977 63.288 263.697 63.288C260.54 63.288 257.596 64.7813 254.865 67.768C252.22 70.6693 249.958 74.3813 248.081 78.904C246.63 82.232 245.478 85.6027 244.625 89.016C243.772 92.344 243.345 95.5013 243.345 98.488C243.345 101.304 243.772 103.779 244.625 105.912C245.564 108.045 247.057 109.624 249.105 110.648C250.385 111.331 251.836 111.672 253.457 111.672Z" fill="white"/>
<circle cx="67" cy="24" r="6" fill="#BB9010"/>
<circle cx="67" cy="119" r="6" fill="#BB9010"/>
<circle cx="324" cy="24" r="6" fill="#BB9010"/>
<circle cx="324" cy="119" r="6" fill="#BB9010"/>
<path d="M158.002 43.248C157.34 43.248 156.711 43.056 156.114 42.672C155.516 42.3093 155.068 41.744 154.77 40.976C154.663 40.6987 154.588 40.4 154.546 40.08C154.503 39.76 154.482 39.4613 154.482 39.184V38.896C154.482 38.7253 154.492 38.5547 154.514 38.384C154.556 38.2133 154.652 38.128 154.802 38.128C154.844 38.128 154.866 38.1493 154.866 38.192C154.866 38.32 154.855 38.4587 154.834 38.608C154.834 38.736 154.834 38.864 154.834 38.992C154.834 39.9947 155.079 40.752 155.57 41.264C156.082 41.776 156.711 42.032 157.458 42.032C158.204 42.032 158.93 41.8187 159.634 41.392C160.338 40.9653 160.988 40.4213 161.586 39.76C162.183 39.0987 162.748 38.2773 163.282 37.296C163.815 36.3147 164.316 35.28 164.786 34.192C165.255 33.0827 165.692 31.9947 166.098 30.928C166.524 29.8613 166.919 28.912 167.282 28.08C167.495 27.5893 167.89 27.1733 168.466 26.832C169.063 26.4907 169.628 26.2453 170.162 26.096C170.012 26.0747 169.863 26.064 169.714 26.064C169.586 26.0427 169.458 26.0213 169.33 26L164.818 25.552C164.476 25.5093 164.028 25.4773 163.474 25.456C162.919 25.4347 162.332 25.424 161.714 25.424C160.882 25.424 160.028 25.4773 159.154 25.584C158.279 25.6693 157.49 25.8293 156.786 26.064C156.082 26.2987 155.57 26.6507 155.25 27.12C155.079 27.376 154.994 27.6747 154.994 28.016C154.994 28.3573 155.09 28.6773 155.282 28.976C155.474 29.2747 155.719 29.5093 156.018 29.68C156.06 29.7227 156.082 29.7547 156.082 29.776C156.082 29.84 156.028 29.8933 155.922 29.936C155.836 29.9787 155.74 29.9787 155.634 29.936C155.442 29.8293 155.218 29.648 154.962 29.392C154.706 29.136 154.471 28.8693 154.258 28.592C154.066 28.2933 153.927 28.048 153.842 27.856C153.714 27.4933 153.65 27.1733 153.65 26.896C153.65 26.384 153.82 25.968 154.162 25.648C154.524 25.3067 154.983 25.0507 155.538 24.88C156.114 24.688 156.722 24.56 157.362 24.496C158.023 24.4107 158.652 24.368 159.25 24.368C159.484 24.368 159.708 24.368 159.922 24.368C160.135 24.368 160.338 24.3787 160.53 24.4C161.212 24.4427 161.927 24.4853 162.674 24.528C163.42 24.5707 164.178 24.624 164.946 24.688L170.034 25.104C170.375 25.1253 170.887 25.168 171.57 25.232C172.274 25.2747 172.988 25.296 173.714 25.296C174.503 25.296 175.228 25.2533 175.89 25.168C176.551 25.0613 176.988 24.88 177.202 24.624C177.244 24.5387 177.308 24.5173 177.394 24.56C177.479 24.6027 177.5 24.656 177.458 24.72C177.394 24.976 177.308 25.168 177.202 25.296C177.095 25.5093 176.946 25.744 176.754 26C176.583 26.256 176.316 26.4267 175.954 26.512C175.868 26.5333 175.751 26.5547 175.602 26.576C175.452 26.576 175.292 26.576 175.122 26.576C174.631 26.576 174.034 26.544 173.33 26.48C172.647 26.3947 171.975 26.3093 171.314 26.224C170.674 26.3307 170.119 26.6293 169.65 27.12C169.18 27.6107 168.775 28.176 168.434 28.816C168.092 29.4347 167.794 30.0213 167.538 30.576C167.068 31.536 166.674 32.4213 166.354 33.232C166.055 34.0213 165.682 34.896 165.234 35.856C164.786 36.8373 164.316 37.808 163.826 38.768C163.335 39.7067 162.738 40.56 162.034 41.328C161.5 41.904 160.882 42.3627 160.178 42.704C159.474 43.0667 158.748 43.248 158.002 43.248ZM172.902 42.192C172.582 42.192 172.294 42.128 172.038 42C171.803 41.872 171.686 41.6373 171.686 41.296C171.686 41.104 171.729 40.8907 171.814 40.656C172.006 40.1653 172.262 39.568 172.582 38.864C172.923 38.16 173.265 37.4773 173.606 36.816C173.947 36.1333 174.214 35.5787 174.406 35.152C174.534 34.896 174.598 34.7147 174.598 34.608C174.598 34.416 174.491 34.3733 174.278 34.48C174.065 34.5867 173.83 34.736 173.574 34.928C173.318 35.12 173.126 35.2693 172.998 35.376C172.443 35.888 171.857 36.496 171.238 37.2C170.641 37.8827 170.086 38.608 169.574 39.376C169.083 40.1227 168.699 40.8693 168.422 41.616C168.401 41.744 168.262 41.8507 168.006 41.936C167.75 42.0213 167.515 42.064 167.302 42.064C166.961 42.064 166.833 41.9573 166.918 41.744C167.409 40.6347 167.91 39.408 168.422 38.064C168.955 36.72 169.553 35.344 170.214 33.936C170.705 32.8693 171.249 31.7707 171.846 30.64C172.465 29.5093 173.147 28.432 173.894 27.408C174.641 26.3627 175.462 25.4453 176.358 24.656C177.147 23.9733 178.011 23.4187 178.95 22.992C179.91 22.544 180.945 22.32 182.054 22.32C182.545 22.32 182.971 22.4267 183.334 22.64C183.697 22.832 183.899 23.184 183.942 23.696V23.984C183.942 24.2827 183.91 24.5813 183.846 24.88C183.825 24.9653 183.739 25.008 183.59 25.008C183.526 25.008 183.505 24.9973 183.526 24.976C183.611 24.4213 183.462 24.0267 183.078 23.792C182.715 23.5573 182.246 23.44 181.67 23.44C180.625 23.44 179.665 23.632 178.79 24.016C177.915 24.4 177.105 24.912 176.358 25.552C175.206 26.5547 174.203 27.8347 173.35 29.392C172.497 30.9493 171.761 32.5387 171.142 34.16C170.843 34.9493 170.545 35.7387 170.246 36.528C169.969 37.3173 169.702 38.0533 169.446 38.736C170.406 37.456 171.323 36.3573 172.198 35.44C173.094 34.5227 173.873 33.872 174.534 33.488C175.067 33.1893 175.547 33.04 175.974 33.04C176.379 33.04 176.582 33.2107 176.582 33.552C176.582 33.8507 176.433 34.2347 176.134 34.704C175.985 34.9387 175.75 35.3333 175.43 35.888C175.131 36.4427 174.811 37.0507 174.47 37.712C174.15 38.352 173.873 38.9493 173.638 39.504C173.403 40.0587 173.286 40.464 173.286 40.72C173.286 41.0613 173.435 41.232 173.734 41.232C173.905 41.232 174.097 41.1787 174.31 41.072C174.545 40.9653 174.715 40.8693 174.822 40.784C175.398 40.3573 175.963 39.8347 176.518 39.216C177.073 38.5973 177.542 38.0533 177.926 37.584C177.947 37.5627 177.958 37.5947 177.958 37.68C177.958 37.7653 177.937 37.8933 177.894 38.064C177.873 38.2133 177.809 38.3413 177.702 38.448C177.467 38.768 177.222 39.0773 176.966 39.376C176.731 39.6533 176.497 39.9307 176.262 40.208C175.857 40.6773 175.366 41.1253 174.79 41.552C174.235 41.9787 173.606 42.192 172.902 42.192ZM181.924 42.096C181.711 42.096 181.53 42.0533 181.38 41.968C181.231 41.8827 181.156 41.7227 181.156 41.488C181.156 41.1893 181.231 40.848 181.38 40.464C181.53 40.08 181.7 39.7067 181.892 39.344C182.084 38.96 182.255 38.6507 182.404 38.416C181.658 39.2053 180.879 39.952 180.068 40.656C179.663 40.9973 179.215 41.3173 178.724 41.616C178.234 41.9147 177.711 42.064 177.156 42.064C176.943 42.064 176.794 42 176.708 41.872C176.623 41.7227 176.58 41.552 176.58 41.36C176.58 41.2533 176.591 41.1787 176.612 41.136C176.719 40.304 176.986 39.44 177.412 38.544C177.839 37.648 178.362 36.8053 178.98 36.016C179.599 35.2267 180.228 34.5867 180.868 34.096C181.594 33.5413 182.394 33.264 183.268 33.264H186.948C187.055 33.264 187.108 33.3067 187.108 33.392C187.108 33.5627 187.012 33.648 186.82 33.648C186.607 33.648 186.394 33.7867 186.18 34.064C185.967 34.32 185.807 34.5333 185.7 34.704C185.551 34.9387 185.316 35.3333 184.996 35.888C184.676 36.4427 184.346 37.0507 184.004 37.712C183.684 38.352 183.407 38.9493 183.172 39.504C182.938 40.0587 182.82 40.464 182.82 40.72C182.82 41.0187 182.97 41.168 183.268 41.168C183.588 41.168 183.951 41.0187 184.356 40.72C184.762 40.4213 185.167 40.0587 185.572 39.632C185.999 39.184 186.383 38.7467 186.724 38.32C187.087 37.872 187.375 37.52 187.588 37.264C187.716 37.392 187.706 37.5733 187.556 37.808C187.428 38.0213 187.311 38.192 187.204 38.32C186.778 38.8747 186.287 39.4507 185.732 40.048C185.178 40.624 184.57 41.1147 183.908 41.52C183.268 41.904 182.607 42.096 181.924 42.096ZM178.468 40.976C178.724 40.976 179.076 40.7947 179.524 40.432C179.994 40.048 180.495 39.5787 181.028 39.024C181.562 38.448 182.063 37.8507 182.532 37.232C183.002 36.592 183.386 36.016 183.684 35.504C184.004 34.9707 184.164 34.5653 184.164 34.288C184.164 34.0533 184.09 33.8933 183.94 33.808C183.812 33.7227 183.642 33.68 183.428 33.68C183.087 33.68 182.714 33.808 182.308 34.064C181.924 34.2987 181.615 34.5333 181.38 34.768C181.124 35.0027 180.815 35.376 180.452 35.888C180.111 36.3787 179.77 36.9227 179.428 37.52C179.087 38.1173 178.799 38.6933 178.564 39.248C178.33 39.8027 178.212 40.2507 178.212 40.592C178.212 40.848 178.298 40.976 178.468 40.976ZM188.259 42.096C188.045 42.096 187.864 42.0533 187.715 41.968C187.565 41.8827 187.491 41.7227 187.491 41.488C187.491 41.1893 187.565 40.8373 187.715 40.432C187.885 40.0267 188.067 39.6213 188.259 39.216C188.451 38.8107 188.611 38.48 188.739 38.224C188.845 38.032 188.984 37.7333 189.155 37.328C189.347 36.9013 189.539 36.464 189.731 36.016C189.944 35.5467 190.115 35.152 190.243 34.832C190.392 34.512 190.467 34.352 190.467 34.352C190.275 34.5653 190.019 34.864 189.699 35.248C189.4 35.632 189.069 36.0373 188.707 36.464C188.365 36.8693 188.045 37.2533 187.747 37.616C187.469 37.9787 187.267 38.2453 187.139 38.416C187.075 38.5013 187.021 38.544 186.979 38.544C186.936 38.544 186.915 38.4907 186.915 38.384C186.915 38.2133 186.968 38.0533 187.075 37.904C187.331 37.584 187.64 37.2 188.003 36.752C188.365 36.2827 188.728 35.8133 189.091 35.344C189.475 34.8747 189.805 34.4587 190.083 34.096C189.912 34.096 189.688 34.1067 189.411 34.128C189.155 34.1493 188.92 34.1813 188.707 34.224C188.493 34.2453 188.376 34.256 188.355 34.256C188.248 34.256 188.259 34.1707 188.387 34C188.515 33.8293 188.685 33.6587 188.899 33.488C189.112 33.3173 189.272 33.232 189.379 33.232C189.4 33.232 189.571 33.2427 189.891 33.264C190.211 33.264 190.445 33.264 190.595 33.264C191.021 32.688 191.437 32.0267 191.843 31.28C192.269 30.5333 192.685 29.712 193.091 28.816C193.261 28.7947 193.549 28.6773 193.955 28.464C194.381 28.2293 194.712 27.9947 194.947 27.76C195.053 27.6533 195.139 27.6 195.203 27.6C195.331 27.6 195.331 27.6853 195.203 27.856C195.053 28.0267 194.797 28.3893 194.435 28.944C194.072 29.4773 193.667 30.128 193.219 30.896C192.771 31.6427 192.344 32.432 191.939 33.264H194.531C194.765 33.264 194.883 33.296 194.883 33.36C194.883 33.4453 194.723 33.5307 194.403 33.616C194.04 33.7227 193.656 33.7867 193.251 33.808C192.867 33.8293 192.504 33.872 192.163 33.936C191.843 34 191.608 34.1387 191.459 34.352C191.331 34.5013 191.149 34.8213 190.915 35.312C190.68 35.8027 190.424 36.368 190.147 37.008C189.891 37.6267 189.667 38.256 189.475 38.896C189.283 39.5147 189.165 40.0373 189.123 40.464V40.592C189.123 40.7627 189.176 40.9013 189.283 41.008C189.389 41.1147 189.496 41.168 189.603 41.168C189.88 41.168 190.232 40.9973 190.659 40.656C191.107 40.3147 191.565 39.9093 192.035 39.44C192.504 38.9493 192.909 38.5013 193.251 38.096C193.4 37.9253 193.528 37.7653 193.635 37.616C193.763 37.4667 193.837 37.3707 193.859 37.328C193.901 37.4133 193.923 37.4773 193.923 37.52C193.923 37.648 193.88 37.7867 193.795 37.936C193.731 38.0853 193.656 38.2133 193.571 38.32C193.165 38.8533 192.675 39.4187 192.099 40.016C191.523 40.592 190.904 41.0827 190.243 41.488C189.603 41.8933 188.941 42.096 188.259 42.096ZM195.433 53.2C194.622 53.2 193.843 53.008 193.097 52.624C192.329 52.2613 191.763 51.696 191.401 50.928C191.273 50.6507 191.187 50.352 191.145 50.032C191.102 49.7333 191.081 49.4347 191.081 49.136V48.784C191.081 48.6133 191.102 48.4533 191.145 48.304C191.187 48.176 191.294 48.112 191.465 48.112C191.507 48.112 191.529 48.1333 191.529 48.176C191.529 48.304 191.518 48.432 191.497 48.56C191.475 48.688 191.465 48.8267 191.465 48.976C191.465 49.9573 191.785 50.704 192.425 51.216C193.043 51.728 193.822 51.984 194.761 51.984C195.145 51.984 195.539 51.9413 195.945 51.856C196.35 51.7707 196.734 51.6533 197.097 51.504C198.441 50.928 199.603 50.1067 200.585 49.04C201.587 47.9947 202.462 46.8107 203.209 45.488C203.955 44.1653 204.627 42.8213 205.225 41.456C205.566 40.6453 205.865 39.856 206.121 39.088C206.398 38.32 206.643 37.6267 206.857 37.008C206.643 37.3067 206.366 37.6693 206.025 38.096C205.683 38.5227 205.342 38.9387 205.001 39.344C204.659 39.728 204.361 40.0373 204.105 40.272C203.571 40.784 202.995 41.2213 202.377 41.584C201.779 41.9253 201.161 42.096 200.521 42.096C200.307 42.096 200.126 42.0533 199.977 41.968C199.827 41.8827 199.753 41.7227 199.753 41.488C199.753 41.1893 199.827 40.8373 199.977 40.432C200.147 40.0267 200.329 39.6213 200.521 39.216C200.713 38.8107 200.873 38.48 201.001 38.224C201.257 37.7333 201.502 37.2427 201.737 36.752C201.971 36.2613 202.174 35.8453 202.345 35.504C202.515 35.184 202.601 34.9707 202.601 34.864C202.601 34.6933 202.473 34.6933 202.217 34.864C201.982 35.0347 201.758 35.2053 201.545 35.376C201.075 35.824 200.585 36.3573 200.073 36.976C199.561 37.5733 199.166 38.0533 198.889 38.416C198.825 38.5013 198.771 38.544 198.729 38.544C198.686 38.544 198.665 38.4907 198.665 38.384C198.665 38.2133 198.718 38.0533 198.825 37.904C199.123 37.4773 199.475 37.008 199.881 36.496C200.286 35.984 200.702 35.4933 201.129 35.024C201.534 34.5973 201.95 34.1813 202.377 33.776C202.803 33.3707 203.347 33.168 204.009 33.168C204.457 33.168 204.681 33.3387 204.681 33.68C204.681 33.9787 204.553 34.32 204.297 34.704C204.147 34.9387 203.913 35.3333 203.593 35.888C203.273 36.4427 202.942 37.0507 202.601 37.712C202.281 38.352 202.003 38.9493 201.769 39.504C201.534 40.0587 201.417 40.464 201.417 40.72C201.417 41.0187 201.566 41.168 201.865 41.168C202.099 41.168 202.387 41.0507 202.729 40.816C203.07 40.56 203.422 40.2613 203.785 39.92C204.403 39.3227 204.969 38.6613 205.481 37.936C206.014 37.2107 206.473 36.5173 206.857 35.856C206.921 35.7493 207.027 35.5573 207.177 35.28C207.347 35.0027 207.518 34.736 207.689 34.48C207.881 34.224 208.03 34.0747 208.137 34.032C208.243 33.9893 208.457 33.872 208.777 33.68C209.097 33.488 209.417 33.36 209.737 33.296C210.035 33.232 210.259 33.2 210.409 33.2C210.643 33.2 210.761 33.264 210.761 33.392C210.761 33.5627 210.665 33.648 210.473 33.648C210.238 33.648 210.025 33.712 209.833 33.84C209.641 33.9467 209.491 34.0853 209.385 34.256C209.193 34.5333 208.915 35.0347 208.553 35.76C208.211 36.4853 207.827 37.328 207.401 38.288C206.995 39.2267 206.59 40.1867 206.185 41.168C205.779 42.128 205.406 43.0133 205.065 43.824C204.553 45.04 203.966 46.224 203.305 47.376C202.643 48.5493 201.865 49.5947 200.969 50.512C200.094 51.4507 199.049 52.1867 197.833 52.72C197.107 53.04 196.307 53.2 195.433 53.2ZM211.553 42.256C210.678 42.256 210.07 42.0853 209.729 41.744C209.387 41.4027 209.217 40.9867 209.217 40.496C209.217 39.8773 209.377 39.216 209.697 38.512C210.038 37.808 210.358 37.2107 210.657 36.72C210.998 36.208 211.457 35.6747 212.033 35.12C212.609 34.5653 213.238 34.096 213.921 33.712C214.603 33.328 215.265 33.136 215.905 33.136C216.459 33.136 216.843 33.2747 217.057 33.552C217.27 33.808 217.377 34.1173 217.377 34.48C217.377 35.1413 217.174 35.6853 216.769 36.112C216.385 36.5387 215.905 36.8907 215.329 37.168C214.753 37.424 214.198 37.6373 213.665 37.808C213.345 37.8933 212.971 37.9787 212.545 38.064C212.118 38.1493 211.713 38.192 211.329 38.192C211.179 38.576 211.062 38.9493 210.977 39.312C210.891 39.6747 210.849 40.0053 210.849 40.304C210.849 40.6667 210.934 40.9653 211.105 41.2C211.297 41.4347 211.606 41.552 212.033 41.552C212.203 41.552 212.406 41.5307 212.641 41.488C212.875 41.4453 213.131 41.3813 213.409 41.296C214.049 41.0827 214.678 40.7413 215.297 40.272C215.915 39.8027 216.481 39.3013 216.993 38.768C217.526 38.2133 217.931 37.7547 218.209 37.392C218.273 37.456 218.305 37.5307 218.305 37.616C218.305 37.7227 218.23 37.8933 218.081 38.128C217.654 38.7253 217.099 39.344 216.417 39.984C215.734 40.624 214.977 41.168 214.145 41.616C213.313 42.0427 212.449 42.256 211.553 42.256ZM211.585 37.552C211.862 37.5733 212.171 37.5733 212.513 37.552C212.875 37.5093 213.227 37.4347 213.569 37.328C214.443 37.072 215.073 36.6667 215.457 36.112C215.862 35.536 216.065 35.024 216.065 34.576C216.065 34.32 216.011 34.1067 215.905 33.936C215.798 33.7653 215.627 33.68 215.393 33.68C214.774 33.68 214.219 33.9147 213.729 34.384C213.238 34.832 212.811 35.3547 212.449 35.952C212.086 36.5493 211.798 37.0827 211.585 37.552ZM222.049 42.096C221.836 42.096 221.655 42.0533 221.505 41.968C221.356 41.8827 221.281 41.7227 221.281 41.488C221.281 41.1893 221.356 40.848 221.505 40.464C221.655 40.08 221.825 39.7067 222.017 39.344C222.209 38.96 222.38 38.6507 222.529 38.416C221.783 39.2053 221.004 39.952 220.193 40.656C219.788 40.9973 219.34 41.3173 218.849 41.616C218.359 41.9147 217.836 42.064 217.281 42.064C217.068 42.064 216.919 42 216.833 41.872C216.748 41.7227 216.705 41.552 216.705 41.36C216.705 41.2533 216.716 41.1787 216.737 41.136C216.844 40.304 217.111 39.44 217.537 38.544C217.964 37.648 218.487 36.8053 219.105 36.016C219.724 35.2267 220.353 34.5867 220.993 34.096C221.719 33.5413 222.519 33.264 223.393 33.264H227.073C227.18 33.264 227.233 33.3067 227.233 33.392C227.233 33.5627 227.137 33.648 226.945 33.648C226.732 33.648 226.519 33.7867 226.305 34.064C226.092 34.32 225.932 34.5333 225.825 34.704C225.676 34.9387 225.441 35.3333 225.121 35.888C224.801 36.4427 224.471 37.0507 224.129 37.712C223.809 38.352 223.532 38.9493 223.297 39.504C223.063 40.0587 222.945 40.464 222.945 40.72C222.945 41.0187 223.095 41.168 223.393 41.168C223.713 41.168 224.076 41.0187 224.481 40.72C224.887 40.4213 225.292 40.0587 225.697 39.632C226.124 39.184 226.508 38.7467 226.849 38.32C227.212 37.872 227.5 37.52 227.713 37.264C227.841 37.392 227.831 37.5733 227.681 37.808C227.553 38.0213 227.436 38.192 227.329 38.32C226.903 38.8747 226.412 39.4507 225.857 40.048C225.303 40.624 224.695 41.1147 224.033 41.52C223.393 41.904 222.732 42.096 222.049 42.096ZM218.593 40.976C218.849 40.976 219.201 40.7947 219.649 40.432C220.119 40.048 220.62 39.5787 221.153 39.024C221.687 38.448 222.188 37.8507 222.657 37.232C223.127 36.592 223.511 36.016 223.809 35.504C224.129 34.9707 224.289 34.5653 224.289 34.288C224.289 34.0533 224.215 33.8933 224.065 33.808C223.937 33.7227 223.767 33.68 223.553 33.68C223.212 33.68 222.839 33.808 222.433 34.064C222.049 34.2987 221.74 34.5333 221.505 34.768C221.249 35.0027 220.94 35.376 220.577 35.888C220.236 36.3787 219.895 36.9227 219.553 37.52C219.212 38.1173 218.924 38.6933 218.689 39.248C218.455 39.8027 218.337 40.2507 218.337 40.592C218.337 40.848 218.423 40.976 218.593 40.976ZM227.296 42.448C227.21 42.448 227.21 42.3627 227.296 42.192C227.402 42 227.498 41.7867 227.584 41.552C227.69 41.3173 227.797 41.0613 227.904 40.784C228.117 40.272 228.352 39.696 228.608 39.056C228.864 38.416 229.109 37.7973 229.344 37.2C229.578 36.5813 229.781 36.0587 229.952 35.632C230.144 35.184 230.272 34.896 230.336 34.768C230.037 35.088 229.674 35.4933 229.248 35.984C228.842 36.4533 228.458 36.912 228.096 37.36C227.733 37.808 227.456 38.16 227.264 38.416C227.2 38.5013 227.146 38.544 227.104 38.544C227.061 38.544 227.04 38.4907 227.04 38.384C227.04 38.2133 227.093 38.0533 227.2 37.904C227.605 37.392 228.053 36.816 228.544 36.176C229.056 35.536 229.514 34.9493 229.92 34.416C230.325 33.8613 230.581 33.4987 230.688 33.328C230.922 33.2853 231.264 33.2213 231.712 33.136C232.181 33.0507 232.501 32.9333 232.672 32.784C232.736 32.72 232.8 32.688 232.864 32.688C232.906 32.688 232.928 32.7307 232.928 32.816C232.949 32.88 232.928 32.9547 232.864 33.04C232.736 33.168 232.544 33.4453 232.288 33.872C232.053 34.2987 231.786 34.7893 231.488 35.344C231.189 35.8987 230.901 36.432 230.624 36.944C230.837 36.624 231.114 36.2507 231.456 35.824C231.818 35.376 232.213 34.9493 232.64 34.544C233.066 34.1173 233.493 33.7653 233.92 33.488C234.368 33.2107 234.784 33.072 235.168 33.072C235.445 33.072 235.68 33.136 235.872 33.264C236.064 33.3707 236.213 33.5733 236.32 33.872C236.384 34.0213 236.416 34.192 236.416 34.384C236.416 34.7467 236.32 35.0987 236.128 35.44C235.957 35.76 235.829 36.0053 235.744 36.176C235.722 36.24 235.648 36.304 235.52 36.368C235.392 36.4107 235.338 36.3893 235.36 36.304C235.381 36.1973 235.392 36.0907 235.392 35.984C235.413 35.8773 235.424 35.76 235.424 35.632C235.424 35.2693 235.349 34.9387 235.2 34.64C235.072 34.3413 234.826 34.192 234.464 34.192C234.122 34.192 233.706 34.4053 233.216 34.832C232.725 35.2587 232.234 35.7493 231.744 36.304C231.125 37.0293 230.634 37.7227 230.272 38.384C229.909 39.024 229.61 39.6533 229.376 40.272C229.248 40.6133 229.12 40.9547 228.992 41.296C228.864 41.616 228.768 41.872 228.704 42.064C228.426 42.0853 228.149 42.1493 227.872 42.256C227.594 42.384 227.402 42.448 227.296 42.448Z" fill="white"/>
</svg>
