<svg width="383" height="311" viewBox="0 0 383 311" fill="none" xmlns="http://www.w3.org/2000/svg">
<rect x="28.5" y="0.5" width="326" height="310" rx="31.5" stroke="#BB9010"/>
<path d="M354.5 47.0002V30.5002C354.5 30.5002 354.5 18.5005 366.5 18.5002C378.5 18.5 378.5 30.5002 378.5 30.5002" stroke="#BB9010"/>
<ellipse cx="361.316" cy="16.6011" rx="1.81107" ry="5.4332" transform="rotate(30.4767 361.316 16.6011)" fill="#BB9010"/>
<ellipse cx="368.845" cy="22.3503" rx="1.81107" ry="5.4332" transform="rotate(140.663 368.845 22.3503)" fill="#BB9010"/>
<ellipse cx="376.795" cy="20.0948" rx="2" ry="5.5" transform="rotate(101.941 376.795 20.0948)" fill="#BB9010"/>
<ellipse cx="377.816" cy="31.4351" rx="1.81107" ry="5.4332" transform="rotate(179.943 377.816 31.4351)" fill="#BB9010"/>
<path d="M28.5 47V30.5C28.5 30.5 28.0896 18.5005 16.0898 18.5002C4.09005 18.5 4.08985 30.5002 4.08985 30.5002" stroke="#BB9010"/>
<ellipse cx="1.81107" cy="5.4332" rx="1.81107" ry="5.4332" transform="matrix(-0.861836 0.507188 0.507188 0.861836 20.0786 11)" fill="#BB9010"/>
<ellipse cx="1.81107" cy="5.4332" rx="1.81107" ry="5.4332" transform="matrix(0.773432 0.633879 0.633879 -0.773432 8.90039 25.4045)" fill="#BB9010"/>
<ellipse cx="2" cy="5.5" rx="2" ry="5.5" transform="matrix(0.20691 0.97836 0.97836 -0.20691 0 19.2761)" fill="#BB9010"/>
<ellipse cx="1.81107" cy="5.4332" rx="1.81107" ry="5.4332" transform="matrix(0.999999 0.000998507 0.000998507 -0.999999 2.95703 36.8665)" fill="#BB9010"/>
<path d="M28.5 266L28.5 282.5C28.5 282.5 28.0896 294.5 16.0898 294.5C4.09005 294.5 4.08985 282.5 4.08985 282.5" stroke="#BB9010"/>
<ellipse cx="21.2734" cy="296.399" rx="1.81107" ry="5.4332" transform="rotate(-149.523 21.2734 296.399)" fill="#BB9010"/>
<ellipse cx="13.7451" cy="290.65" rx="1.81107" ry="5.4332" transform="rotate(-39.3369 13.7451 290.65)" fill="#BB9010"/>
<ellipse cx="5.7948" cy="292.905" rx="2" ry="5.5" transform="rotate(-78.0587 5.7948 292.905)" fill="#BB9010"/>
<ellipse cx="4.77352" cy="281.565" rx="1.81107" ry="5.4332" transform="rotate(-0.0572052 4.77352 281.565)" fill="#BB9010"/>
<path d="M354.5 266L354.5 282.5C354.5 282.5 354.5 294.5 366.5 294.5C378.5 294.5 378.5 282.5 378.5 282.5" stroke="#BB9010"/>
<ellipse cx="1.81107" cy="5.4332" rx="1.81107" ry="5.4332" transform="matrix(0.861836 -0.507188 -0.507188 -0.861836 362.511 302)" fill="#BB9010"/>
<ellipse cx="1.81107" cy="5.4332" rx="1.81107" ry="5.4332" transform="matrix(-0.773432 -0.633879 -0.633879 0.773432 373.689 287.596)" fill="#BB9010"/>
<ellipse cx="2" cy="5.5" rx="2" ry="5.5" transform="matrix(-0.20691 -0.97836 -0.97836 0.20691 382.59 293.724)" fill="#BB9010"/>
<ellipse cx="1.81107" cy="5.4332" rx="1.81107" ry="5.4332" transform="matrix(-0.999999 -0.000998594 -0.000998594 0.999999 379.633 276.134)" fill="#BB9010"/>
</svg>
