<svg width="390" height="48" viewBox="0 0 390 48" fill="none" xmlns="http://www.w3.org/2000/svg">
<rect width="390" height="48" fill="#484387"/>
<circle cx="186" cy="24" r="8.5" stroke="#FFBF00"/>
<path d="M211.5 24C211.5 28.7217 207.892 32.5 203.5 32.5C199.108 32.5 195.5 28.7217 195.5 24C195.5 19.2783 199.108 15.5 203.5 15.5C207.892 15.5 211.5 19.2783 211.5 24Z" stroke="#FFBF00"/>
<circle cx="194.5" cy="15.5" r="8" transform="rotate(90 194.5 15.5)" stroke="#FFBF00"/>
<circle cx="194.5" cy="32.5" r="8" transform="rotate(90 194.5 32.5)" stroke="#FFBF00"/>
<circle cx="319" cy="24" r="8.5" stroke="#FFBF00"/>
<path d="M344.5 24C344.5 28.7217 340.892 32.5 336.5 32.5C332.108 32.5 328.5 28.7217 328.5 24C328.5 19.2783 332.108 15.5 336.5 15.5C340.892 15.5 344.5 19.2783 344.5 24Z" stroke="#FFBF00"/>
<circle cx="327.5" cy="15.5" r="8" transform="rotate(90 327.5 15.5)" stroke="#FFBF00"/>
<circle cx="327.5" cy="32.5" r="8" transform="rotate(90 327.5 32.5)" stroke="#FFBF00"/>
<circle cx="55" cy="24" r="8.5" stroke="#FFBF00"/>
<path d="M80.5 24C80.5 28.7217 76.8917 32.5 72.5 32.5C68.1083 32.5 64.5 28.7217 64.5 24C64.5 19.2783 68.1083 15.5 72.5 15.5C76.8917 15.5 80.5 19.2783 80.5 24Z" stroke="#FFBF00"/>
<circle cx="63.5" cy="15.5" r="8" transform="rotate(90 63.5 15.5)" stroke="#FFBF00"/>
<circle cx="63.5" cy="32.5" r="8" transform="rotate(90 63.5 32.5)" stroke="#FFBF00"/>
<path d="M225.333 24C225.333 25.4728 226.527 26.6667 228 26.6667C229.473 26.6667 230.667 25.4728 230.667 24C230.667 22.5272 229.473 21.3333 228 21.3333C226.527 21.3333 225.333 22.5272 225.333 24ZM292.833 24C292.833 25.4728 294.027 26.6667 295.5 26.6667C296.973 26.6667 298.167 25.4728 298.167 24C298.167 22.5272 296.973 21.3333 295.5 21.3333C294.027 21.3333 292.833 22.5272 292.833 24ZM228 24.5H295.5V23.5H228V24.5Z" fill="#FFBF00"/>
<path d="M92.3333 24C92.3333 25.4728 93.5272 26.6667 95 26.6667C96.4728 26.6667 97.6667 25.4728 97.6667 24C97.6667 22.5272 96.4728 21.3333 95 21.3333C93.5272 21.3333 92.3333 22.5272 92.3333 24ZM159.833 24C159.833 25.4728 161.027 26.6667 162.5 26.6667C163.973 26.6667 165.167 25.4728 165.167 24C165.167 22.5272 163.973 21.3333 162.5 21.3333C161.027 21.3333 159.833 22.5272 159.833 24ZM95 24.5H162.5V23.5H95V24.5Z" fill="#FFBF00"/>
</svg>
