<svg width="492" height="74" viewBox="0 0 492 74" fill="none" xmlns="http://www.w3.org/2000/svg">
<path d="M0 34H196.5" stroke="#BB9010"/>
<path d="M0 39H196.5" stroke="#BB9010"/>
<path d="M295.5 34H492" stroke="#BB9010"/>
<path d="M295.5 39H492" stroke="#BB9010"/>
<rect x="231.167" y="22.7071" width="20.4498" height="20.4498" transform="rotate(45 231.167 22.7071)" stroke="#BB9010"/>
<rect x="261.167" y="22.7071" width="20.4498" height="20.4498" transform="rotate(45 261.167 22.7071)" stroke="#BB9010"/>
<rect x="231.707" y="52.1673" width="20.4498" height="20.4498" transform="rotate(-45 231.707 52.1673)" stroke="#BB9010"/>
<rect x="231.707" y="22.1673" width="20.4498" height="20.4498" transform="rotate(-45 231.707 22.1673)" stroke="#BB9010"/>
<mask id="path-9-inside-1_475_1211" fill="white">
<path d="M261.213 22.2132C263.088 20.3378 264.091 17.7432 264 15.0002C263.909 12.2571 262.732 9.59026 260.728 7.58633C258.724 5.5824 256.057 4.40554 253.314 4.31463C250.571 4.22372 247.977 5.22622 246.101 7.10158L253.657 14.6574L261.213 22.2132Z"/>
</mask>
<path d="M261.213 22.2132C263.088 20.3378 264.091 17.7432 264 15.0002C263.909 12.2571 262.732 9.59026 260.728 7.58633C258.724 5.5824 256.057 4.40554 253.314 4.31463C250.571 4.22372 247.977 5.22622 246.101 7.10158L253.657 14.6574L261.213 22.2132Z" stroke="#BB9010" stroke-width="2" mask="url(#path-9-inside-1_475_1211)"/>
<mask id="path-10-inside-2_475_1211" fill="white">
<path d="M247.183 7.07106C245.307 5.1957 242.713 4.1932 239.97 4.28411C237.227 4.37501 234.56 5.55188 232.556 7.55581C230.552 9.55973 229.375 12.2266 229.284 14.9696C229.193 17.7127 230.196 20.3073 232.071 22.1827L239.627 14.6269L247.183 7.07106Z"/>
</mask>
<path d="M247.183 7.07106C245.307 5.1957 242.713 4.1932 239.97 4.28411C237.227 4.37501 234.56 5.55188 232.556 7.55581C230.552 9.55973 229.375 12.2266 229.284 14.9696C229.193 17.7127 230.196 20.3073 232.071 22.1827L239.627 14.6269L247.183 7.07106Z" stroke="#BB9010" stroke-width="2" mask="url(#path-10-inside-2_475_1211)"/>
<mask id="path-11-inside-3_475_1211" fill="white">
<path d="M232.071 51.0711C230.196 52.9464 229.193 55.541 229.284 58.2841C229.375 61.0272 230.552 63.694 232.556 65.6979C234.56 67.7019 237.227 68.8787 239.97 68.9696C242.713 69.0605 245.308 68.0581 247.183 66.1827L239.627 58.6269L232.071 51.0711Z"/>
</mask>
<path d="M232.071 51.0711C230.196 52.9464 229.193 55.541 229.284 58.2841C229.375 61.0272 230.552 63.694 232.556 65.6979C234.56 67.7019 237.227 68.8787 239.97 68.9696C242.713 69.0605 245.308 68.0581 247.183 66.1827L239.627 58.6269L232.071 51.0711Z" stroke="#BB9010" stroke-width="2" mask="url(#path-11-inside-3_475_1211)"/>
<mask id="path-12-inside-4_475_1211" fill="white">
<path d="M246.101 66.2132C247.977 68.0886 250.571 69.0911 253.315 69.0002C256.058 68.9093 258.724 67.7324 260.728 65.7285C262.732 63.7246 263.909 61.0577 264 58.3146C264.091 55.5716 263.088 52.977 261.213 51.1016L253.657 58.6574L246.101 66.2132Z"/>
</mask>
<path d="M246.101 66.2132C247.977 68.0886 250.571 69.0911 253.315 69.0002C256.058 68.9093 258.724 67.7324 260.728 65.7285C262.732 63.7246 263.909 61.0577 264 58.3146C264.091 55.5716 263.088 52.977 261.213 51.1016L253.657 58.6574L246.101 66.2132Z" stroke="#BB9010" stroke-width="2" mask="url(#path-12-inside-4_475_1211)"/>
</svg>
