<?xml version="1.0" encoding="UTF-8"?>
<svg id="Layer_1" data-name="Layer 1" xmlns="http://www.w3.org/2000/svg" viewBox="0 0 462.67 525.1">
  <defs>
    <style>
      .cls-1 {
        fill: none;
        stroke: #484487;
        stroke-linecap: round;
        stroke-miterlimit: 10;
        stroke-width: 18px;
      }
    </style>
  </defs>
  <line class="cls-1" x1="235.73" y1="11.27" x2="235.73" y2="513.83"/>
  <line class="cls-1" x1="426.75" y1="111.65" x2="24.9" y2="413.45"/>
  <line class="cls-1" x1="438.35" y1="401.26" x2="33.11" y2="104.03"/>
  <line class="cls-1" x1="70.93" y1="127.86" x2="70.76" y2="64.97"/>
  <line class="cls-1" x1="105.46" y1="149.85" x2="105.29" y2="86.96"/>
  <line class="cls-1" x1="9" y1="145.51" x2="70.71" y2="133.35"/>
  <line class="cls-1" x1="40.18" y1="168.89" x2="101.88" y2="156.74"/>
  <line class="cls-1" x1="235.05" y1="47.84" x2="284.51" y2="9"/>
  <line class="cls-1" x1="238.97" y1="88.59" x2="288.44" y2="49.74"/>
  <line class="cls-1" x1="183.02" y1="9.89" x2="230.58" y2="51.05"/>
  <line class="cls-1" x1="183.78" y1="48.86" x2="231.34" y2="90.01"/>
  <line class="cls-1" x1="236.41" y1="477.25" x2="186.94" y2="516.1"/>
  <line class="cls-1" x1="232.49" y1="436.51" x2="183.02" y2="475.35"/>
  <line class="cls-1" x1="288.44" y1="515.21" x2="240.88" y2="474.05"/>
  <line class="cls-1" x1="287.68" y1="476.24" x2="240.12" y2="435.08"/>
  <line class="cls-1" x1="70.71" y1="379.34" x2="9.78" y2="363.77"/>
  <line class="cls-1" x1="100.64" y1="351.42" x2="39.7" y2="335.85"/>
  <line class="cls-1" x1="72.3" y1="443.72" x2="75.97" y2="380.94"/>
  <line class="cls-1" x1="102.74" y1="419.39" x2="106.42" y2="356.6"/>
  <line class="cls-1" x1="392.1" y1="138.43" x2="453.67" y2="151.27"/>
  <line class="cls-1" x1="363.45" y1="167.66" x2="425.02" y2="180.5"/>
  <line class="cls-1" x1="387.64" y1="74.19" x2="386.77" y2="137.07"/>
  <line class="cls-1" x1="358.31" y1="99.85" x2="357.44" y2="162.74"/>
  <line class="cls-1" x1="387.46" y1="369.31" x2="386.76" y2="432.2"/>
  <line class="cls-1" x1="353.24" y1="346.85" x2="352.54" y2="409.74"/>
  <line class="cls-1" x1="449.63" y1="352.53" x2="387.76" y2="363.82"/>
  <line class="cls-1" x1="418.78" y1="328.71" x2="356.91" y2="340.01"/>
</svg>