<?xml version="1.0" encoding="UTF-8"?>
<svg id="Layer_1" data-name="Layer 1" xmlns="http://www.w3.org/2000/svg" viewBox="0 0 196.13 184.6">
  <defs>
    <style>
      .cls-1 {
        letter-spacing: 0em;
      }

      .cls-2 {
        letter-spacing: -.04em;
      }

      .cls-3 {
        stroke: #484487;
        stroke-miterlimit: 10;
      }

      .cls-3, .cls-4 {
        fill: #484587;
      }

      .cls-5 {
        letter-spacing: -.05em;
      }

      .cls-4 {
        font-family: MyriadPro-Regular, 'Myriad Pro';
        font-size: 23px;
      }

      .cls-6 {
        letter-spacing: -.03em;
      }

      .cls-7 {
        fill: #fff;
        stroke-width: 0px;
      }

      .cls-8 {
        letter-spacing: 0em;
      }
    </style>
  </defs>
  <rect class="cls-7" width="196.13" height="184.6"/>
  <path class="cls-3" d="M122.04,86.26h29.08v-9.92h-21.48c3.44-4.94,6.21-9.63,8.42-13.81-3.01-1.92-6.03-3.83-9.04-5.75-4.36,7.94-8.9,14.43-12.95,19.56h-26.26c3.33-3.29,6.86-7.14,10.37-11.6,5.24-6.65,9.22-13.07,12.23-18.73-2.84-2.01-5.68-4.02-8.51-6.04-2.28,4.7-4.47,8.37-6.04,10.84-6.15,9.7-11.54,18.16-21.36,22.76-3.26,1.53-6.16,2.24-8.01,2.59l-23.42-.11v10.22h62.46c-7.58,8.35-14.36,14.76-24.72,18-4.87,1.52-9.3,2.51-14.61,2.49-7.71-.04-15.43-.07-23.14-.11v10.22h106.04v-9.92h-50.85c6.42-4.87,14.14-11.63,21.76-20.68Z"/>
  <text class="cls-4" transform="translate(45.09 142.81)"><tspan class="cls-5" x="0" y="0">T</tspan><tspan class="cls-8" x="10.4" y="0">r</tspan><tspan x="17.8" y="0">ain</tspan><tspan class="cls-2" x="47.03" y="0"> </tspan><tspan class="cls-6" x="51.08" y="0">W</tspan><tspan x="69.78" y="0">o</tspan><tspan class="cls-1" x="82.41" y="0">r</tspan><tspan x="90.02" y="0">ld</tspan></text>
</svg>